<svg height="512pt" viewBox="0 -42 512 512" width="512pt" xmlns="http://www.w3.org/2000/svg"><path d="m192 427.519531c-8.832031 0-16-7.167969-16-16v-395.519531c0-8.832031 7.167969-16 16-16s16 7.167969 16 16v395.519531c0 8.832031-7.167969 16-16 16zm0 0"/><path d="m368 85.441406c-8.832031 0-16-7.167968-16-16v-37.441406h-320v37.441406c0 8.832032-7.167969 16-16 16s-16-7.167968-16-16v-53.441406c0-8.832031 7.167969-16 16-16h352c8.832031 0 16 7.167969 16 16v53.441406c0 8.832032-7.167969 16-16 16zm0 0"/><path d="m240 427.519531h-96c-8.832031 0-16-7.167969-16-16s7.167969-16 16-16h96c8.832031 0 16 7.167969 16 16s-7.167969 16-16 16zm0 0"/><path d="m314.667969 261.824219c-8.832031 0-16-7.167969-16-16v-37.417969c0-8.832031 7.167969-16 16-16h181.332031c8.832031 0 16 7.167969 16 16v32.0625c0 8.832031-7.167969 16-16 16s-16-7.167969-16-16v-16.0625h-149.332031v21.417969c0 8.832031-7.167969 16-16 16zm0 0"/><path d="m405.332031 427.519531c-8.832031 0-16-7.167969-16-16v-203.113281c0-8.832031 7.167969-16 16-16s16 7.167969 16 16v203.113281c0 8.832031-7.167969 16-16 16zm0 0"/><path d="m432 427.519531h-53.332031c-8.832031 0-16-7.167969-16-16s7.167969-16 16-16h53.332031c8.832031 0 16 7.167969 16 16s-7.167969 16-16 16zm0 0"/></svg>